<svg width="48" height="48" viewBox="0 0 48 48" fill="none" xmlns="http://www.w3.org/2000/svg">
<rect width="48" height="48" rx="8" fill="#CAFF59"/>
<path d="M16 32.6222C16.3556 32.6222 16.6667 32.4889 16.9333 32.2222C17.2 31.9556 17.3333 31.6444 17.3333 31.2889C17.3333 30.9333 17.2 30.6222 16.9333 30.3556C16.6667 30.0889 16.3556 29.9556 16 29.9556C15.6444 29.9556 15.3333 30.0889 15.0667 30.3556C14.8 30.6222 14.6667 30.9333 14.6667 31.2889C14.6667 31.6444 14.8 31.9556 15.0667 32.2222C15.3333 32.4889 15.6444 32.6222 16 32.6222ZM16 25.3333C16.3556 25.3333 16.6667 25.2 16.9333 24.9333C17.2 24.6667 17.3333 24.3556 17.3333 24C17.3333 23.6444 17.2 23.3333 16.9333 23.0667C16.6667 22.8 16.3556 22.6667 16 22.6667C15.6444 22.6667 15.3333 22.8 15.0667 23.0667C14.8 23.3333 14.6667 23.6444 14.6667 24C14.6667 24.3556 14.8 24.6667 15.0667 24.9333C15.3333 25.2 15.6444 25.3333 16 25.3333ZM16 18.0444C16.3556 18.0444 16.6667 17.9111 16.9333 17.6444C17.2 17.3778 17.3333 17.0667 17.3333 16.7111C17.3333 16.3556 17.2 16.0444 16.9333 15.7778C16.6667 15.5111 16.3556 15.3778 16 15.3778C15.6444 15.3778 15.3333 15.5111 15.0667 15.7778C14.8 16.0444 14.6667 16.3556 14.6667 16.7111C14.6667 17.0667 14.8 17.3778 15.0667 17.6444C15.3333 17.9111 15.6444 18.0444 16 18.0444ZM21.8667 32.6222H32.7111V29.9556H21.8667V32.6222ZM21.8667 25.3333H32.7111V22.6667H21.8667V25.3333ZM21.8667 18.0444H32.7111V15.3778H21.8667V18.0444ZM10.6667 40C9.95556 40 9.33333 39.7333 8.8 39.2C8.26667 38.6667 8 38.0444 8 37.3333V10.6667C8 9.95556 8.26667 9.33333 8.8 8.8C9.33333 8.26667 9.95556 8 10.6667 8H37.3333C38.0444 8 38.6667 8.26667 39.2 8.8C39.7333 9.33333 40 9.95556 40 10.6667V37.3333C40 38.0444 39.7333 38.6667 39.2 39.2C38.6667 39.7333 38.0444 40 37.3333 40H10.6667ZM10.6667 37.3333H37.3333V10.6667H10.6667V37.3333ZM10.6667 10.6667V37.3333V10.6667Z" fill="#504D4D"/>
</svg>
